<?xml version="1.0" encoding="utf-8"?>
<!-- Generator: Adobe Illustrator 25.4.1, SVG Export Plug-In . SVG Version: 6.00 Build 0)  -->
<svg version="1.1" id="Layer_1" xmlns="http://www.w3.org/2000/svg" xmlns:xlink="http://www.w3.org/1999/xlink" x="0px" y="0px"
	 viewBox="0 0 48 48" style="enable-background:new 0 0 48 48;" xml:space="preserve">
<style type="text/css">
	.st0{fill:#00A9CE;}
	.st1{fill:#FFFFFF;}
</style>
<path class="st0" d="M23.9,48c10.5,0,17.7-5,17.7-24S34.4,0,23.9,0S6.1,4.9,6.1,24S13.4,48,23.9,48 M21.6,24L13,15.4l2.5-2.5
	l6.8,6.8V3.3l12.4,12.4L26.5,24l8.2,8.2L22.3,44.6V28.2l-6.8,6.8L13,32.6L21.6,24z M25.8,36.1l4-4l-4-4L25.8,36.1z M25.8,11.8l4,4
	l-4,4L25.8,11.8z"/>
</svg>
